<?xml version="1.0" standalone="no"?>
 <!DOCTYPE svg PUBLIC "-//W3C//DTD SVG 1.1//EN" 
 "http://www.w3.org/Graphics/SVG/1.1/DTD/svg11.dtd"> 
<svg xmlns="http://www.w3.org/2000/svg" version="1.1" 
    width="29.7002cm" height="21.0007cm" viewBox="0 0 116930 82680 ">
<title>SVG Picture created as kicad-F.SilkS.svg date 2019/11/10 11:02:59 </title>
  <desc>Picture generated by PCBNEW </desc>
<g style="fill:#000000; fill-opacity:1;stroke:#000000; stroke-opacity:1;
stroke-linecap:round; stroke-linejoin:round; "
 transform="translate(0 0) scale(1 1)">
</g>
<g style="fill:#000000; fill-opacity:0.0; 
stroke:#000000; stroke-width:-0.000393701; stroke-opacity:1; 
stroke-linecap:round; stroke-linejoin:round;">
</g>
<g style="fill:#000000; fill-opacity:0.0; 
stroke:#000000; stroke-width:19.685; stroke-opacity:1; 
stroke-linecap:round; stroke-linejoin:round;">
<path d="M50715 15420
L51115 15420
" />
<path d="M51115 15420
L51115 14620
" />
<path d="M51115 14620
L50715 14620
" />
<path d="M56235 14620
L55835 14620
" />
<path d="M55835 14620
L55835 15420
" />
<path d="M55835 15420
L56235 15420
" />
<path d="M50715 13600
L50715 17580
" />
<path d="M56235 17580
L56235 13600
" />
<path d="M50715 17580
L56235 17580
" />
<path d="M50715 13600
L56235 13600
" />
<path d="M66255 29305
L66855 29305
" />
<path d="M66855 29305
L66855 29905
" />
<path d="M66855 29905
L66255 29905
" />
<path d="M66255 29905
L66255 29305
" />
<circle cx="66555" cy="15825" r="302.655" /> 
<circle cx="66555" cy="16805" r="302.655" /> 
<circle cx="66555" cy="17785" r="300.666" /> 
<circle cx="66555" cy="18785" r="300.666" /> 
<circle cx="66555" cy="19765" r="300" /> 
<circle cx="66555" cy="20745" r="302.655" /> 
<circle cx="66555" cy="21725" r="300" /> 
<circle cx="66555" cy="22705" r="300.666" /> 
<circle cx="66555" cy="23705" r="300.666" /> 
<circle cx="66555" cy="24685" r="300.666" /> 
<circle cx="66555" cy="25665" r="300.666" /> 
<circle cx="66555" cy="26645" r="300.666" /> 
<circle cx="66555" cy="27645" r="302.655" /> 
<circle cx="66555" cy="28625" r="300.666" /> 
<circle cx="60755" cy="29605" r="302.655" /> 
<circle cx="60755" cy="28625" r="300" /> 
<circle cx="60755" cy="27645" r="300" /> 
<circle cx="60755" cy="26645" r="300" /> 
<circle cx="60755" cy="25665" r="300.666" /> 
<circle cx="60755" cy="24685" r="300" /> 
<circle cx="60755" cy="23705" r="300.666" /> 
<circle cx="60755" cy="22705" r="300" /> 
<circle cx="60755" cy="21725" r="302.655" /> 
<circle cx="60755" cy="20745" r="300.666" /> 
<circle cx="60755" cy="19765" r="302.655" /> 
<circle cx="60755" cy="18785" r="300" /> 
<circle cx="60755" cy="17785" r="300" /> 
<circle cx="60755" cy="16805" r="300" /> 
<circle cx="60755" cy="15825" r="300" /> 
<path d="M62155 13605
L65155 13605
" />
<path d="M62155 14125
L62155 13605
" />
<path d="M65155 14125
L65155 13605
" />
<circle cx="66555" cy="30805" r="380" /> 
<circle cx="60755" cy="30805" r="380" /> 
<circle cx="66555" cy="14625" r="380" /> 
<circle cx="60755" cy="14625" r="380" /> 
<path d="M60215 31305
L67095 31305
" />
<path d="M60215 14125
L67095 14125
" />
<path d="M60215 31305
L60215 14125
" />
<path d="M67095 31305
L67095 14125
" />
<path d="M53343 15581
L53343 15862
L53325 15918
L53287 15956
L53231 15974
L53193 15974
" />
<path d="M53737 15974
L53512 15974
" />
<path d="M53624 15974
L53624 15581
L53587 15637
L53549 15674
L53512 15693
" />
</g>
<g style="fill:#000000; fill-opacity:0.0; 
stroke:#000000; stroke-width:59.0551; stroke-opacity:1; 
stroke-linecap:round; stroke-linejoin:round;">
<path d="M51858 30865
L51464 30865
L51464 30715
L51483 30678
L51501 30659
L51539 30640
L51595 30640
L51633 30659
L51651 30678
L51670 30715
L51670 30865
" />
<path d="M51858 30471
L51595 30471
" />
<path d="M51464 30471
L51483 30490
L51501 30471
L51483 30453
L51464 30471
L51501 30471
" />
<path d="M51839 30134
L51858 30171
L51858 30246
L51839 30284
L51801 30303
L51651 30303
L51614 30284
L51595 30246
L51595 30171
L51614 30134
L51651 30115
L51689 30115
L51726 30303
" />
<path d="M51595 29984
L51595 29778
L51858 29984
L51858 29778
" />
<path d="M51858 29571
L51839 29609
L51820 29628
L51783 29646
L51670 29646
L51633 29628
L51614 29609
L51595 29571
L51595 29515
L51614 29478
L51633 29459
L51670 29440
L51783 29440
L51820 29459
L51839 29478
L51858 29515
L51858 29571
" />
<path d="M51858 29065
L51858 29290
" />
<path d="M51858 29178
L51464 29178
L51520 29215
L51558 29253
L51576 29290
" />
<path d="M52858 30865
L52464 30865
L52464 30715
L52483 30678
L52501 30659
L52539 30640
L52595 30640
L52633 30659
L52651 30678
L52670 30715
L52670 30865
" />
<path d="M52858 30471
L52595 30471
" />
<path d="M52464 30471
L52483 30490
L52501 30471
L52483 30453
L52464 30471
L52501 30471
" />
<path d="M52839 30134
L52858 30171
L52858 30246
L52839 30284
L52801 30303
L52651 30303
L52614 30284
L52595 30246
L52595 30171
L52614 30134
L52651 30115
L52689 30115
L52726 30303
" />
<path d="M52595 29984
L52595 29778
L52858 29984
L52858 29778
" />
<path d="M52858 29571
L52839 29609
L52820 29628
L52783 29646
L52670 29646
L52633 29628
L52614 29609
L52595 29571
L52595 29515
L52614 29478
L52633 29459
L52670 29440
L52783 29440
L52820 29459
L52839 29478
L52858 29515
L52858 29571
" />
<path d="M52501 29290
L52483 29271
L52464 29234
L52464 29140
L52483 29103
L52501 29084
L52539 29065
L52576 29065
L52633 29084
L52858 29309
L52858 29065
" />
<path d="M53858 30865
L53464 30865
L53464 30715
L53483 30678
L53501 30659
L53539 30640
L53595 30640
L53633 30659
L53651 30678
L53670 30715
L53670 30865
" />
<path d="M53858 30471
L53595 30471
" />
<path d="M53464 30471
L53483 30490
L53501 30471
L53483 30453
L53464 30471
L53501 30471
" />
<path d="M53839 30134
L53858 30171
L53858 30246
L53839 30284
L53801 30303
L53651 30303
L53614 30284
L53595 30246
L53595 30171
L53614 30134
L53651 30115
L53689 30115
L53726 30303
" />
<path d="M53595 29984
L53595 29778
L53858 29984
L53858 29778
" />
<path d="M53858 29571
L53839 29609
L53820 29628
L53783 29646
L53670 29646
L53633 29628
L53614 29609
L53595 29571
L53595 29515
L53614 29478
L53633 29459
L53670 29440
L53783 29440
L53820 29459
L53839 29478
L53858 29515
L53858 29571
" />
<path d="M53464 29309
L53464 29065
L53614 29196
L53614 29140
L53633 29103
L53651 29084
L53689 29065
L53783 29065
L53820 29084
L53839 29103
L53858 29140
L53858 29253
L53839 29290
L53820 29309
" />
<path d="M54858 30865
L54464 30865
L54464 30715
L54483 30678
L54501 30659
L54539 30640
L54595 30640
L54633 30659
L54651 30678
L54670 30715
L54670 30865
" />
<path d="M54858 30471
L54595 30471
" />
<path d="M54464 30471
L54483 30490
L54501 30471
L54483 30453
L54464 30471
L54501 30471
" />
<path d="M54839 30134
L54858 30171
L54858 30246
L54839 30284
L54801 30303
L54651 30303
L54614 30284
L54595 30246
L54595 30171
L54614 30134
L54651 30115
L54689 30115
L54726 30303
" />
<path d="M54595 29984
L54595 29778
L54858 29984
L54858 29778
" />
<path d="M54858 29571
L54839 29609
L54820 29628
L54783 29646
L54670 29646
L54633 29628
L54614 29609
L54595 29571
L54595 29515
L54614 29478
L54633 29459
L54670 29440
L54783 29440
L54820 29459
L54839 29478
L54858 29515
L54858 29571
" />
<path d="M54595 29103
L54858 29103
" />
<path d="M54445 29196
L54726 29290
L54726 29046
" />
<path d="M55858 30865
L55464 30865
L55464 30715
L55483 30678
L55501 30659
L55539 30640
L55595 30640
L55633 30659
L55651 30678
L55670 30715
L55670 30865
" />
<path d="M55858 30471
L55595 30471
" />
<path d="M55464 30471
L55483 30490
L55501 30471
L55483 30453
L55464 30471
L55501 30471
" />
<path d="M55839 30134
L55858 30171
L55858 30246
L55839 30284
L55801 30303
L55651 30303
L55614 30284
L55595 30246
L55595 30171
L55614 30134
L55651 30115
L55689 30115
L55726 30303
" />
<path d="M55595 29984
L55595 29778
L55858 29984
L55858 29778
" />
<path d="M55858 29571
L55839 29609
L55820 29628
L55783 29646
L55670 29646
L55633 29628
L55614 29609
L55595 29571
L55595 29515
L55614 29478
L55633 29459
L55670 29440
L55783 29440
L55820 29459
L55839 29478
L55858 29515
L55858 29571
" />
<path d="M55464 29084
L55464 29271
L55651 29290
L55633 29271
L55614 29234
L55614 29140
L55633 29103
L55651 29084
L55689 29065
L55783 29065
L55820 29084
L55839 29103
L55858 29140
L55858 29234
L55839 29271
L55820 29290
" />
<path d="M56863 30865
L56469 30865
L56469 30715
L56488 30678
L56506 30659
L56544 30640
L56600 30640
L56638 30659
L56656 30678
L56675 30715
L56675 30865
" />
<path d="M56863 30471
L56600 30471
" />
<path d="M56469 30471
L56488 30490
L56506 30471
L56488 30453
L56469 30471
L56506 30471
" />
<path d="M56844 30134
L56863 30171
L56863 30246
L56844 30284
L56806 30303
L56656 30303
L56619 30284
L56600 30246
L56600 30171
L56619 30134
L56656 30115
L56694 30115
L56731 30303
" />
<path d="M56600 29984
L56600 29778
L56863 29984
L56863 29778
" />
<path d="M56863 29571
L56844 29609
L56825 29628
L56788 29646
L56675 29646
L56638 29628
L56619 29609
L56600 29571
L56600 29515
L56619 29478
L56638 29459
L56675 29440
L56788 29440
L56825 29459
L56844 29478
L56863 29515
L56863 29571
" />
<path d="M56469 29103
L56469 29178
L56488 29215
L56506 29234
L56563 29271
L56638 29290
L56788 29290
L56825 29271
L56844 29253
L56863 29215
L56863 29140
L56844 29103
L56825 29084
L56788 29065
L56694 29065
L56656 29084
L56638 29103
L56619 29140
L56619 29215
L56638 29253
L56656 29271
L56694 29290
" />
<path d="M57863 30865
L57469 30865
L57469 30715
L57488 30678
L57506 30659
L57544 30640
L57600 30640
L57638 30659
L57656 30678
L57675 30715
L57675 30865
" />
<path d="M57863 30471
L57600 30471
" />
<path d="M57469 30471
L57488 30490
L57506 30471
L57488 30453
L57469 30471
L57506 30471
" />
<path d="M57844 30134
L57863 30171
L57863 30246
L57844 30284
L57806 30303
L57656 30303
L57619 30284
L57600 30246
L57600 30171
L57619 30134
L57656 30115
L57694 30115
L57731 30303
" />
<path d="M57600 29984
L57600 29778
L57863 29984
L57863 29778
" />
<path d="M57863 29571
L57844 29609
L57825 29628
L57788 29646
L57675 29646
L57638 29628
L57619 29609
L57600 29571
L57600 29515
L57619 29478
L57638 29459
L57675 29440
L57788 29440
L57825 29459
L57844 29478
L57863 29515
L57863 29571
" />
<path d="M57469 29309
L57469 29046
L57863 29215
" />
<path d="M58863 30865
L58469 30865
L58469 30715
L58488 30678
L58506 30659
L58544 30640
L58600 30640
L58638 30659
L58656 30678
L58675 30715
L58675 30865
" />
<path d="M58863 30471
L58600 30471
" />
<path d="M58469 30471
L58488 30490
L58506 30471
L58488 30453
L58469 30471
L58506 30471
" />
<path d="M58844 30134
L58863 30171
L58863 30246
L58844 30284
L58806 30303
L58656 30303
L58619 30284
L58600 30246
L58600 30171
L58619 30134
L58656 30115
L58694 30115
L58731 30303
" />
<path d="M58600 29984
L58600 29778
L58863 29984
L58863 29778
" />
<path d="M58863 29571
L58844 29609
L58825 29628
L58788 29646
L58675 29646
L58638 29628
L58619 29609
L58600 29571
L58600 29515
L58619 29478
L58638 29459
L58675 29440
L58788 29440
L58825 29459
L58844 29478
L58863 29515
L58863 29571
" />
<path d="M58638 29215
L58619 29253
L58600 29271
L58563 29290
L58544 29290
L58506 29271
L58488 29253
L58469 29215
L58469 29140
L58488 29103
L58506 29084
L58544 29065
L58563 29065
L58600 29084
L58619 29103
L58638 29140
L58638 29215
L58656 29253
L58675 29271
L58713 29290
L58788 29290
L58825 29271
L58844 29253
L58863 29215
L58863 29140
L58844 29103
L58825 29084
L58788 29065
L58713 29065
L58675 29084
L58656 29103
L58638 29140
" />
<path d="M51858 30040
L51670 30171
" />
<path d="M51858 30265
L51464 30265
L51464 30115
L51483 30078
L51501 30059
L51539 30040
L51595 30040
L51633 30059
L51651 30078
L51670 30115
L51670 30265
" />
<path d="M51858 29665
L51858 29890
" />
<path d="M51858 29778
L51464 29778
L51520 29815
L51558 29853
L51576 29890
" />
<path d="M52858 30040
L52670 30171
" />
<path d="M52858 30265
L52464 30265
L52464 30115
L52483 30078
L52501 30059
L52539 30040
L52595 30040
L52633 30059
L52651 30078
L52670 30115
L52670 30265
" />
<path d="M52501 29890
L52483 29871
L52464 29834
L52464 29740
L52483 29703
L52501 29684
L52539 29665
L52576 29665
L52633 29684
L52858 29909
L52858 29665
" />
<path d="M53858 30040
L53670 30171
" />
<path d="M53858 30265
L53464 30265
L53464 30115
L53483 30078
L53501 30059
L53539 30040
L53595 30040
L53633 30059
L53651 30078
L53670 30115
L53670 30265
" />
<path d="M53464 29909
L53464 29665
L53614 29796
L53614 29740
L53633 29703
L53651 29684
L53689 29665
L53783 29665
L53820 29684
L53839 29703
L53858 29740
L53858 29853
L53839 29890
L53820 29909
" />
<path d="M54858 30040
L54670 30171
" />
<path d="M54858 30265
L54464 30265
L54464 30115
L54483 30078
L54501 30059
L54539 30040
L54595 30040
L54633 30059
L54651 30078
L54670 30115
L54670 30265
" />
<path d="M54595 29703
L54858 29703
" />
<path d="M54445 29796
L54726 29890
L54726 29646
" />
<path d="M55858 30040
L55670 30171
" />
<path d="M55858 30265
L55464 30265
L55464 30115
L55483 30078
L55501 30059
L55539 30040
L55595 30040
L55633 30059
L55651 30078
L55670 30115
L55670 30265
" />
<path d="M55464 29684
L55464 29871
L55651 29890
L55633 29871
L55614 29834
L55614 29740
L55633 29703
L55651 29684
L55689 29665
L55783 29665
L55820 29684
L55839 29703
L55858 29740
L55858 29834
L55839 29871
L55820 29890
" />
<path d="M56863 30040
L56675 30171
" />
<path d="M56863 30265
L56469 30265
L56469 30115
L56488 30078
L56506 30059
L56544 30040
L56600 30040
L56638 30059
L56656 30078
L56675 30115
L56675 30265
" />
<path d="M56469 29703
L56469 29778
L56488 29815
L56506 29834
L56563 29871
L56638 29890
L56788 29890
L56825 29871
L56844 29853
L56863 29815
L56863 29740
L56844 29703
L56825 29684
L56788 29665
L56694 29665
L56656 29684
L56638 29703
L56619 29740
L56619 29815
L56638 29853
L56656 29871
L56694 29890
" />
<path d="M57863 30040
L57675 30171
" />
<path d="M57863 30265
L57469 30265
L57469 30115
L57488 30078
L57506 30059
L57544 30040
L57600 30040
L57638 30059
L57656 30078
L57675 30115
L57675 30265
" />
<path d="M57469 29909
L57469 29646
L57863 29815
" />
<path d="M58863 30040
L58675 30171
" />
<path d="M58863 30265
L58469 30265
L58469 30115
L58488 30078
L58506 30059
L58544 30040
L58600 30040
L58638 30059
L58656 30078
L58675 30115
L58675 30265
" />
<path d="M58638 29815
L58619 29853
L58600 29871
L58563 29890
L58544 29890
L58506 29871
L58488 29853
L58469 29815
L58469 29740
L58488 29703
L58506 29684
L58544 29665
L58563 29665
L58600 29684
L58619 29703
L58638 29740
L58638 29815
L58656 29853
L58675 29871
L58713 29890
L58788 29890
L58825 29871
L58844 29853
L58863 29815
L58863 29740
L58844 29703
L58825 29684
L58788 29665
L58713 29665
L58675 29684
L58656 29703
L58638 29740
" />
<path d="M63584 23883
L63453 23695
" />
<path d="M63359 23883
L63359 23489
L63509 23489
L63546 23508
L63565 23526
L63584 23564
L63584 23620
L63565 23658
L63546 23676
L63509 23695
L63359 23695
" />
<path d="M63771 23883
L63846 23883
L63884 23864
L63903 23845
L63940 23789
L63959 23714
L63959 23564
L63940 23526
L63921 23508
L63884 23489
L63809 23489
L63771 23508
L63753 23526
L63734 23564
L63734 23658
L63753 23695
L63771 23714
L63809 23733
L63884 23733
L63921 23714
L63940 23695
L63959 23658
" />
<path d="M63396 24863
L63265 24675
" />
<path d="M63171 24863
L63171 24469
L63321 24469
L63359 24488
L63378 24506
L63396 24544
L63396 24600
L63378 24638
L63359 24656
L63321 24675
L63171 24675
" />
<path d="M63771 24863
L63546 24863
" />
<path d="M63659 24863
L63659 24469
L63621 24525
L63584 24563
L63546 24581
" />
<path d="M64015 24469
L64053 24469
L64090 24488
L64109 24506
L64128 24544
L64146 24619
L64146 24713
L64128 24788
L64109 24825
L64090 24844
L64053 24863
L64015 24863
L63978 24844
L63959 24825
L63940 24788
L63921 24713
L63921 24619
L63940 24544
L63959 24506
L63978 24488
L64015 24469
" />
<path d="M63396 25848
L63265 25660
" />
<path d="M63171 25848
L63171 25454
L63321 25454
L63359 25473
L63378 25491
L63396 25529
L63396 25585
L63378 25623
L63359 25641
L63321 25660
L63171 25660
" />
<path d="M63771 25848
L63546 25848
" />
<path d="M63659 25848
L63659 25454
L63621 25510
L63584 25548
L63546 25566
" />
<path d="M64146 25848
L63921 25848
" />
<path d="M64034 25848
L64034 25454
L63996 25510
L63959 25548
L63921 25566
" />
<path d="M62754 35299
L62773 35243
L62773 35149
L62754 35112
L62735 35093
L62698 35074
L62660 35074
L62623 35093
L62604 35112
L62585 35149
L62566 35224
L62548 35262
L62529 35281
L62491 35299
L62454 35299
L62416 35281
L62398 35262
L62379 35224
L62379 35131
L62398 35074
" />
<path d="M62379 34943
L62773 34849
L62491 34774
L62773 34700
L62379 34606
" />
<path d="M62773 34250
L62773 34475
" />
<path d="M62773 34362
L62379 34362
L62435 34400
L62473 34437
L62491 34475
" />
<path d="M63799 35299
L63818 35243
L63818 35149
L63799 35112
L63780 35093
L63743 35074
L63705 35074
L63668 35093
L63649 35112
L63630 35149
L63611 35224
L63593 35262
L63574 35281
L63536 35299
L63499 35299
L63461 35281
L63443 35262
L63424 35224
L63424 35131
L63443 35074
" />
<path d="M63424 34943
L63818 34849
L63536 34774
L63818 34700
L63424 34606
" />
<path d="M63461 34475
L63443 34456
L63424 34418
L63424 34325
L63443 34287
L63461 34268
L63499 34250
L63536 34250
L63593 34268
L63818 34493
L63818 34250
" />
<path d="M64799 35299
L64818 35243
L64818 35149
L64799 35112
L64780 35093
L64743 35074
L64705 35074
L64668 35093
L64649 35112
L64630 35149
L64611 35224
L64593 35262
L64574 35281
L64536 35299
L64499 35299
L64461 35281
L64443 35262
L64424 35224
L64424 35131
L64443 35074
" />
<path d="M64424 34943
L64818 34849
L64536 34774
L64818 34700
L64424 34606
" />
<path d="M64424 34493
L64424 34250
L64574 34381
L64574 34325
L64593 34287
L64611 34268
L64649 34250
L64743 34250
L64780 34268
L64799 34287
L64818 34325
L64818 34437
L64799 34475
L64780 34493
" />
</g>
<g style="fill:#000000; fill-opacity:0.0; 
stroke:#000000; stroke-width:19.685; stroke-opacity:1; 
stroke-linecap:round; stroke-linejoin:round;">
<path d="M63999 23192
L64393 22929
" />
<path d="M63999 22929
L64393 23192
" />
<path d="M64280 22798
L64280 22611
" />
<path d="M64393 22836
L63999 22705
L64393 22573
" />
<path d="M64393 22236
L64393 22461
" />
<path d="M64393 22348
L63999 22348
L64055 22386
L64093 22423
L64111 22461
" />
<path d="M58310 28207
L58291 28226
L58235 28244
L58198 28244
L58141 28226
L58104 28188
L58085 28151
L58066 28076
L58066 28019
L58085 27944
L58104 27907
L58141 27870
L58198 27851
L58235 27851
L58291 27870
L58310 27888
" />
<path d="M58648 28244
L58648 28038
L58629 28001
L58591 27982
L58516 27982
L58479 28001
" />
<path d="M58648 28226
L58610 28244
L58516 28244
L58479 28226
L58460 28188
L58460 28151
L58479 28113
L58516 28094
L58610 28094
L58648 28076
" />
<path d="M58816 28226
L58854 28244
L58929 28244
L58966 28226
L58985 28188
L58985 28169
L58966 28132
L58929 28113
L58873 28113
L58835 28094
L58816 28057
L58816 28038
L58835 28001
L58873 27982
L58929 27982
L58966 28001
" />
<path d="M59304 28226
L59266 28244
L59191 28244
L59154 28226
L59135 28188
L59135 28038
L59154 28001
L59191 27982
L59266 27982
L59304 28001
L59323 28038
L59323 28076
L59135 28113
" />
</g>
<g style="fill:#000000; fill-opacity:0.0; 
stroke:#000000; stroke-width:59.0551; stroke-opacity:1; 
stroke-linecap:round; stroke-linejoin:round;">
<path d="M52538 21638
L52350 21769
" />
<path d="M52538 21863
L52144 21863
L52144 21713
L52163 21675
L52181 21656
L52219 21638
L52275 21638
L52313 21656
L52331 21675
L52350 21713
L52350 21863
" />
<path d="M52538 21263
L52538 21488
" />
<path d="M52538 21375
L52144 21375
L52200 21413
L52238 21450
L52256 21488
" />
<path d="M52181 21113
L52163 21094
L52144 21056
L52144 20963
L52163 20925
L52181 20906
L52219 20888
L52256 20888
L52313 20906
L52538 21131
L52538 20888
" />
</g> 
</svg>
