<?xml version="1.0" standalone="no"?>
 <!DOCTYPE svg PUBLIC "-//W3C//DTD SVG 1.1//EN" 
 "http://www.w3.org/Graphics/SVG/1.1/DTD/svg11.dtd"> 
<svg xmlns="http://www.w3.org/2000/svg" version="1.1" 
    width="29.7002cm" height="21.0007cm" viewBox="0 0 116930 82680 ">
<title>SVG Picture created as kicad-Dwgs.User.svg date 2019/11/10 11:02:59 </title>
  <desc>Picture generated by PCBNEW </desc>
<g style="fill:#000000; fill-opacity:1;stroke:#000000; stroke-opacity:1;
stroke-linecap:round; stroke-linejoin:round; "
 transform="translate(0 0) scale(1 1)">
</g>
<g style="fill:#000000; fill-opacity:0.0; 
stroke:#000000; stroke-width:-0.000393701; stroke-opacity:1; 
stroke-linecap:round; stroke-linejoin:round;">
</g>
<g style="fill:#000000; fill-opacity:0.0; 
stroke:#000000; stroke-width:59.0551; stroke-opacity:1; 
stroke-linecap:round; stroke-linejoin:round;">
<circle cx="68755" cy="20930" r="880.227" /> 
<circle cx="48635" cy="20770" r="882.043" /> 
<circle cx="58695" cy="40710" r="912.14" /> 
<circle cx="58695" cy="15070" r="940.213" /> 
<path d="M47715 14067
L47715 41672
" />
<path d="M69675 41672
L69675 14067
" />
<path d="M47715 41672
L69675 41672
" />
<path d="M47715 14067
L69675 14067
" />
</g>
<g style="fill:#000000; fill-opacity:0.0; 
stroke:#000000; stroke-width:19.685; stroke-opacity:1; 
stroke-linecap:round; stroke-linejoin:round;">
<path d="M66250 29300
L66850 29300
" />
<path d="M66850 29300
L66850 29900
" />
<path d="M66850 29900
L66250 29900
" />
<path d="M66250 29900
L66250 29300
" />
<circle cx="66550" cy="15820" r="300.666" /> 
<circle cx="66550" cy="28620" r="300.666" /> 
<circle cx="66550" cy="27640" r="300.666" /> 
<circle cx="66550" cy="26640" r="300" /> 
<circle cx="66550" cy="25660" r="300.666" /> 
<circle cx="66550" cy="24680" r="300.666" /> 
<circle cx="66550" cy="23700" r="302.655" /> 
<circle cx="66550" cy="22700" r="302.655" /> 
<circle cx="66550" cy="21720" r="300.666" /> 
<circle cx="66550" cy="20740" r="300" /> 
<circle cx="66550" cy="19760" r="300" /> 
<circle cx="66550" cy="18780" r="300" /> 
<circle cx="66550" cy="17780" r="300" /> 
<circle cx="66550" cy="16800" r="300.666" /> 
<circle cx="60750" cy="29600" r="300" /> 
<circle cx="60750" cy="28620" r="300.666" /> 
<circle cx="60750" cy="27640" r="300" /> 
<circle cx="60750" cy="26640" r="300" /> 
<circle cx="60750" cy="25660" r="300.666" /> 
<circle cx="60750" cy="24680" r="300" /> 
<circle cx="60750" cy="23700" r="302.655" /> 
<circle cx="60750" cy="22700" r="300" /> 
<circle cx="60750" cy="21720" r="302.655" /> 
<circle cx="60750" cy="20740" r="305.941" /> 
<circle cx="60750" cy="19760" r="300.666" /> 
<circle cx="60750" cy="18780" r="302.655" /> 
<circle cx="60750" cy="17780" r="288.444" /> 
<circle cx="60750" cy="16800" r="300" /> 
<circle cx="60750" cy="15820" r="300" /> 
<path d="M62150 13600
L65150 13600
" />
<path d="M62150 14120
L62150 13600
" />
<path d="M65150 14120
L65150 13600
" />
<circle cx="66550" cy="30800" r="380" /> 
<circle cx="60750" cy="30800" r="380" /> 
<circle cx="66550" cy="14620" r="380" /> 
<circle cx="60750" cy="14620" r="380" /> 
<path d="M60210 31300
L67090 31300
" />
<path d="M60210 14120
L67090 14120
" />
<path d="M60210 31300
L60210 14120
" />
<path d="M67090 31300
L67090 14120
" />
<path d="M64388 23224
L64200 23356
" />
<path d="M64388 23449
L63994 23449
L63994 23299
L64013 23262
L64031 23243
L64069 23224
L64125 23224
L64163 23243
L64181 23262
L64200 23299
L64200 23449
" />
<path d="M64181 23056
L64181 22924
" />
<path d="M64388 22868
L64388 23056
L63994 23056
L63994 22868
" />
<path d="M64181 22568
L64181 22700
" />
<path d="M64388 22700
L63994 22700
L63994 22512
" />
<path d="M63994 22306
L64088 22306
" />
<path d="M64050 22400
L64088 22306
L64050 22212
" />
<path d="M64163 22362
L64088 22306
L64163 22250
" />
<path d="M63994 22006
L64088 22006
" />
<path d="M64050 22100
L64088 22006
L64050 21912
" />
<path d="M64163 22062
L64088 22006
L64163 21950
" />
</g> 
</svg>
